<?xml version="1.0" encoding="UTF-8"?><svg id="Layer_2" xmlns="http://www.w3.org/2000/svg" viewBox="0 0 21.08 50.4"><defs><style>.cls-1{fill:#1cbcff;}</style></defs><g id="Layer_1-2"><path class="cls-1" d="M7.51,33.08c0-.07-.03-.15-.09-.19-.06-.04-.14-.04-.21-.03-.14,.03-.27,.12-.36,.24-.04,.06-.07,.13-.07,.21v.22s.03,.44,.03,.44c.03,.58,.03,1.17,.02,1.76-.01,.59-.04,1.17-.09,1.75-.06,.58-.13,1.16-.23,1.74-.1,.58-.22,1.15-.38,1.71-.15,.56-.33,1.11-.55,1.65-.43,1.08-.97,2.09-1.66,3-.68,.91-1.5,1.7-2.4,2.35-.22,.16-.45,.31-.68,.45l-.41,.28s-.07,.06-.1,.09c-.1,.11-.17,.21-.23,.35-.03,.07-.06,.15-.08,.25-.02,.1-.03,.23,0,.4,.03,.17,.17,.38,.33,.49,.06,.04,.12,.06,.17,.09l.65,.08h.38s.15,0,.15,0c0,0,.94,.03,1.06-.01,2.24-.02,4.49-.07,6.75-.24,2.37-.17,4.75-.51,7.11-1.07,.59-.14,1.17-.3,1.75-.47l.44-.13,.1-.03h.03s.07-.03,.07-.03c.08-.03,.15-.06,.21-.09,.27-.14,.46-.33,.61-.52,.15-.2,.25-.4,.32-.67,.03-.13,.06-.28,.05-.47,0-.19-.04-.42-.19-.69-.04-.06-.08-.13-.13-.2-.05-.06-.11-.13-.17-.18-.12-.11-.27-.21-.41-.26-.28-.12-.51-.13-.69-.12-.08,0-.16,.01-.25,.03h-.06s-.05,.03-.05,.03h-.03s-.15,.05-.15,.05c-.54,.17-1.08,.33-1.63,.48-.54,.15-1.09,.29-1.65,.42-1.96,.46-3.96,.8-5.98,1.11,.33-.23,.68-.44,1-.69,1.55-1.14,2.95-2.46,4.2-3.9,.11-.12,.24-.23,.35-.35,.47-.51,.91-1.04,1.34-1.59,.85-1.09,1.62-2.26,2.28-3.48,.66-1.22,1.23-2.5,1.68-3.82,.92-2.63,1.38-5.43,1.39-8.22,0-1.4-.12-2.79-.35-4.17-.23-1.38-.59-2.73-1.04-4.05-.91-2.63-2.26-5.11-3.96-7.29-.51-.65-1.05-1.27-1.62-1.86-1.27-1.47-2.7-2.81-4.27-3.97C7.6,2.26,5.1,.94,2.42,.05,2.42,.05,1.57-.18,1.37,.32c-.08,.19-.16,.65-.11,.87,.11,.59,.55,.93,.55,.93,4.9,1.63,9.17,4.86,12.09,9,1.47,2.06,2.62,4.34,3.39,6.74,.39,1.2,.68,2.42,.87,3.66,.2,1.24,.3,2.5,.29,3.75,0,2.51-.4,5.02-1.17,7.41-.39,1.2-.87,2.37-1.44,3.49-.57,1.12-1.22,2.21-1.96,3.24-.37,.52-.76,1.02-1.16,1.5-.4,.49-.83,.96-1.27,1.42-.88,.91-1.84,1.76-2.87,2.52-1.36,1.01-2.83,1.87-4.37,2.59,.2-.26,.39-.52,.57-.79,.88-1.34,1.51-2.81,1.94-4.32,.43-1.51,.67-3.06,.78-4.61,.06-.78,.07-1.55,.08-2.33,0-.78-.03-1.55-.08-2.33m11.43,14.7h0s0,0,0,0h.03s.04-.02-.02,0Z"/></g></svg>