<?xml version="1.0" encoding="UTF-8"?><svg id="Layer_2" xmlns="http://www.w3.org/2000/svg" viewBox="0 0 187 2.69"><defs><style>.cls-1{fill:#e54d3c;}</style></defs><g id="Layer_1-2"><path class="cls-1" d="M.64,1.64c15.37,0,30.74-.05,46.11-.14,7.69-.05,15.37-.11,23.06-.17l23.05-.21,23.06-.21c7.68-.06,15.37-.12,23.05-.17,7.68-.05,15.37-.08,23.05-.11l11.53-.03h5.76s1.44,0,1.44,0h.72s.36,0,.36,0c-.07,0,.29,0-.14,0h.09c-.17,0-.35,0-.52,.02-.13,0-.19,.01-.28,.02-.65,.06-.87,.14-1.03,.18-.16,.05-.24,.09-.35,.16-.05,.04-.11,.09-.14,.17-.02,.08-.05,.21,.23,.4,.14,.1,.37,.2,.66,.28,.15,.04,.31,.08,.47,.11,.17,.03,.33,.06,.48,.08,.62,.08,1.02,.08,1.28,.08-15.37,0-30.74-.05-46.11-.14-7.69-.05-15.37-.12-23.06-.17l-23.05-.21-23.06-.21c-7.69-.06-15.37-.13-23.05-.17-7.69-.05-15.37-.08-23.06-.11l-11.53-.03H3.92s-1.44,0-1.44,0h-.72c-.24,0-.49-.01-.71,.01-.45,.05-.78,.16-.95,.28-.08,.06-.13,.13-.04,.2,.09,.07,.36,.09,.59,.09Zm0,0c-.23,0-.5-.02-.6-.09-.09-.06-.04-.14,.04-.2,.17-.12,.5-.24,.95-.29,.24-.02,.48-.01,.72-.01h.72s1.44,0,1.44,0h5.76s11.53-.03,11.53-.03c7.69-.02,15.37-.06,23.06-.11,7.68-.05,15.37-.12,23.05-.17l23.06-.21,23.05-.21c7.68-.06,15.37-.13,23.06-.17,15.37-.09,30.74-.14,46.11-.14,.49,0,1.14,.01,1.98,.12,.2,.03,.41,.06,.63,.1,.21,.04,.41,.09,.61,.15,.38,.11,.67,.24,.86,.37,.36,.25,.36,.45,.31,.6-.05,.15-.17,.27-.31,.37-.27,.2-.62,.35-1.09,.5-.48,.15-1.09,.3-2.19,.41-.15,.01-.27,.02-.46,.04-.23,.01-.47,.02-.69,.03h-.09c-.49,0-.19,0-.32,0h-1.08s-1.44,0-1.44,0h-5.76s-11.53-.03-11.53-.03c-7.68-.03-15.37-.06-23.05-.11-7.69-.05-15.37-.12-23.05-.17l-23.06-.21-23.05-.21c-7.68-.06-15.37-.13-23.06-.17-15.37-.09-30.74-.14-46.11-.14Z"/></g></svg>